<?xml version="1.0" encoding="UTF-8"?>
<svg id="Layer_1" data-name="Layer 1" xmlns="http://www.w3.org/2000/svg" version="1.1" viewBox="0 0 1000 1000">
  <defs>
    <style>
      .cls-1 {
        display: none;
        fill: #ed1c24;
      }

      .cls-1, .cls-2 {
        stroke-width: 0px;
      }

      .cls-2 {
        fill: #fff;
      }
    </style>
  </defs>
  <rect class="cls-1" x="152.45" y="152.45" width="695.1" height="695.1"/>
  <g>
    <path class="cls-2" d="M325.99,116.96v397.25h-152.74V116.96H32.12V-1.99h436.75v118.95h-142.88Z"/>
    <path class="cls-2" d="M468.87,502.68V-1.99h314.27v118.95h-162.24v73.55h152.39v118.95h-152.39v74.26h173.85v118.95h-325.89Z"/>
    <path class="cls-2" d="M293.96,1000l-37.66-108.75c-7.28-21.35-16.72-38.12-28.33-50.33-11.61-12.2-24.23-18.3-37.83-18.3h-5.98v177.37H32.12v-504.67h202.01c70.62,0,122.76,11.56,156.43,34.67,33.66,23.11,50.5,57.78,50.5,104,0,34.73-9.8,63.82-29.39,87.28-19.59,23.46-48.74,40.47-87.45,51.03v1.41c21.35,6.57,39.12,17.24,53.32,32.03,14.19,14.78,26.92,36.72,38.18,65.81l49.62,128.45h-171.39ZM279.53,655.46c0-16.89-5.16-30.27-15.48-40.12-10.33-9.85-26.52-14.78-48.57-14.78h-31.32v115.43h27.45c20.41,0,36.83-5.75,49.27-17.24,12.43-11.49,18.65-25.92,18.65-43.29Z"/>
    <path class="cls-2" d="M829.95,1000l-22.17-92.91h-150.63l-23.93,92.91h-164.35l173.85-504.67h188.63l163.65,504.67h-165.06ZM734.23,605.13h-3.52c-.47,5.63-2.11,14.9-4.93,27.8-2.82,12.91-17.01,68.27-42.58,166.11h96.43l-35.19-137.25c-4.93-20.18-8.33-39.06-10.21-56.66Z"/>
    <path class="cls-2" d="M609.81,494.3l16.79-48.74h188.63l16.41,50.6"/>
    <path class="cls-2" d="M594.65,447.58l16.79-48.74h188.63l16.41,50.6"/>
    <path class="cls-2" d="M589.72,432.33l16.79-48.74h188.63l16.41,50.6"/>
  </g>
</svg>