<?xml version="1.0" encoding="UTF-8"?>
<svg id="Layer_1" data-name="Layer 1" xmlns="http://www.w3.org/2000/svg" viewBox="0 0 667.969 695.098">
  <defs>
    <style>
      .cls-1 {
        fill: #231f20;
        stroke-width: 0px;
      }
    </style>
  </defs>
  <path class="cls-1" d="M529.321,267.486h-120.874v-51.422h105.713v-82.52h-105.713v-51.025h112.549V0H0v82.52h97.9v262.481H0v350.098h105.469v-123.047h4.15c9.438,0,18.188,4.234,26.245,12.695,8.057,8.465,14.606,20.104,19.653,34.912l26.123,75.439h118.896l-34.423-89.111c-7.812-20.18-16.644-35.4-26.489-45.654-9.85-10.254-22.179-17.658-36.987-22.217v-.977c26.855-7.324,47.077-19.123,60.669-35.4,13.588-16.273,20.385-36.457,20.385-60.547,0-32.062-11.68-56.11-35.034-72.144-11.711-8.037-26.645-14.059-44.8-18.067V82.52h99.121v267.578h118.85l-118.85,345h114.014l16.602-64.453h104.492l15.381,64.453h114.502l-138.648-427.612ZM158.691,486.114c-8.629,7.977-20.02,11.963-34.18,11.963h-19.043v-80.078h21.729c15.297,0,26.527,3.418,33.691,10.254,7.16,6.836,10.742,16.113,10.742,27.832,0,12.047-4.314,22.057-12.939,30.029ZM451.66,555.694c17.738-67.871,27.588-106.281,29.541-115.234,1.953-8.949,3.09-15.381,3.418-19.287h2.441c1.301,12.207,3.662,25.311,7.08,39.307l24.414,95.215h-66.895Z"/>
</svg>